<svg xmlns="http://www.w3.org/2000/svg" width="25" height="24" viewBox="0 0 25 24">
    <path fill="#FFF" fill-rule="evenodd" d="M19.75 7c1.519 0 2.75 1.221 2.75 2.727v4.546c0 1.506-1.231 2.727-2.75 2.727H5.25c-1.519 0-2.75-1.221-2.75-2.727V9.727C2.5 8.221 3.731 7 5.25 7h14.5zm-.15 2H5.4c-.497 0-.9.384-.9.857V11h3c.552 0 1 .448 1 1s-.448 1-1 1h-3v1.143c0 .473.403.857.9.857h14.2c.497 0 .9-.384.9-.857V13h-3c-.552 0-1-.448-1-1s.448-1 1-1h3V9.857c0-.473-.403-.857-.9-.857zm-7.1 1c1.105 0 2 .895 2 2s-.895 2-2 2-2-.895-2-2 .895-2 2-2z"/>
</svg>
