<svg xmlns="http://www.w3.org/2000/svg" width="25" height="24" viewBox="0 0 25 24">
    <path fill="#FFF" fill-rule="evenodd" d="M8.5 2h8c1.657 0 3 1.342 3 2.998v14.004c0 1.656-1.343 2.998-3 2.998h-8c-1.657 0-3-1.342-3-2.998V4.998C5.5 3.342 6.843 2 8.5 2zm0 1.998c-.552 0-1 .448-1 1v14.004c0 .552.448 1 1 1h8c.552 0 1-.448 1-1V4.998c0-.552-.448-1-1-1h-8zm4 7.003c-1.657 0-3-1.342-3-2.998 0-1.655 1.343-2.998 3-2.998s3 1.343 3 2.998c0 1.656-1.343 2.998-3 2.998zm0-1.999c.552 0 1-.447 1-.999s-.448-1-1-1-1 .448-1 1 .448 1 1 1zm-3 9.001c-.552 0-1-.447-1-1 0-.551.448-.998 1-.998h1c.552 0 1 .447 1 .999s-.448 1-1 1h-1zm0-3.005c-.552 0-1-.448-1-1 0-.551.448-.999 1-.999h1c.552 0 1 .448 1 1 0 .551-.448.999-1 .999h-1zm5 3.005c-.552 0-1-.447-1-1 0-.551.448-.998 1-.998h1c.552 0 1 .447 1 .999s-.448 1-1 1h-1zm0-3.005c-.552 0-1-.448-1-1 0-.551.448-.999 1-.999h1c.552 0 1 .448 1 1 0 .551-.448.999-1 .999h-1z"/>
</svg>
