<svg xmlns="http://www.w3.org/2000/svg" width="24" height="24" viewBox="0 0 24 24">
    <path fill="#FFF" fill-rule="evenodd" d="M6.325 5.225c.398-.302.956-.264 1.31.088C8.68 6.355 10.02 7.891 11.437 9.52c1.655 1.9 3.53 4.052 5.271 5.797.21.21.315.503.288.8-.028.294-.187.563-.432.731-.893.612-1.466.974-2.007 1.314-.076.05-.152.098-.229.146.481.716.96 1.438 1.437 2.167.202.308.218.7.043 1.023-.174.324-.512.525-.88.525H6.93c-.27 0-.529-.11-.717-.303-.188-.194-.29-.455-.283-.726.034-1.169.038-2.316.014-3.418-2.266-1.564-2.852-3.618-2.933-5.108-.16-2.982 1.545-5.9 3.315-7.242zm.562 2.19c-1.078 1.18-1.979 3.12-1.879 4.944.086 1.607.906 2.887 2.436 3.805.292.175.474.487.484.828.03.977.038 1.992.022 3.03h5.12c-.322-.483-.644-.962-.969-1.438-.15-.22-.205-.493-.154-.755.052-.26.206-.493.428-.64.414-.275.757-.49 1.114-.718.293-.185.595-.376.955-.61-1.53-1.602-3.102-3.407-4.516-5.029-1.102-1.265-2.156-2.475-3.04-3.417zm5.056-5.394c2.832-.16 5.109.613 6.77 2.3 1.653 1.68 2.423 3.952 2.286 6.75-.026.536-.47.952-.998.952l-.05-.002c-.551-.028-.976-.496-.95-1.048.11-2.248-.45-3.966-1.714-5.25-1.258-1.277-2.974-1.83-5.23-1.705-.551.018-1.024-.39-1.055-.942-.032-.551.39-1.023.94-1.055zm1.082 3.99c.995.026 1.905.473 2.705 1.329.767.82 1.194 1.694 1.273 2.595.047.551-.36 1.035-.91 1.083-.03.003-.059.005-.088.005-.513 0-.95-.393-.995-.915-.039-.446-.288-.918-.742-1.404-.425-.456-.848-.683-1.294-.694-.552-.013-.988-.473-.974-1.023.013-.545.46-.976 1-.976z"/>
</svg>
